<svg xmlns="http://www.w3.org/2000/svg" viewBox="0 0 1920 200"><defs><style>      .cls-1 {        fill: #140610;      }    </style></defs><g><g id="Layer_1"><path class="cls-1" d="M0,0v15.1c19.6,0,30.6,43.2,21.7,81.1-8.9,37.9-16.3,63.7,0,83.3,11.5,13.6,25.1,9.5,31.2-6.1,9.5-25.7-4.7-55.6-4.1-81.3.7-25.1,21.7-37.3,46.8-33.2,27.1,4.1,32.5,27.1,33.2,50.1.7,12.2-11.6,60,8.6,60s8.3-25.1,8.3-45.7,2-58.3,27.8-71.1c33.9-16.9,42,10.8,36.6,37.9-2.4,10-11.9,47,10.6,47s13.8-28.1,12.4-37.6c-2.7-16.3-2.7-29.1,6.8-44,6.1-9.5,16.3-21,28.4-20.3,16.3.7,14.4,35.3,38.4,35.3s66-41.5,73.4-35.3c10.2,7.5,4.1,19,2.7,29.1-1.4,7.4-6.1,23,12.2,23s-2-27.8,4.1-37.9c8.8-14.9,39.3-9.5,47.4,3.4,8.8,14.2,3.4,39.3.7,54.9s-8.1,33.9-4.1,50.1c8.8,34.6,29.8,6.1,29.1-16.3-.7-29.8-13.5-59.6-3.4-88.1,6.1-16.3,31.2-44.7,52.2-30.5,18.3,12.2,3.4,52.8,1.3,69.8-1.3,11.5-5.4,31.2,1.3,42,6.1,9.5,13.5,10.2,17.6-2,3.4-10.2-6.1-30.5-6.8-41.3-1.3-11.5-2.7-25.1,1.3-36.6,12.2-37.9,23.7,16.3,42.7,4.1,9.5-6.1,29.1-63.7,41.3-21,4.1,14.9-18.4,60.3,4.7,60.3s-6-26.1,14.9-54.2,31.8,25.7,41.3,27.8c21,4.7,19-53.5,54.9-30.5,11.5,7.5,19.7,22.4,21.7,35.2,2.7,14.9-6.8,30.5-4.1,44.7,6.8,29.1,29.8,10.2,29.8-11.5s-20.3-56.2,9.5-61.7c29.8-6.1,46.7,18.1,52.8,46.8,6.2,28.6-26.7,77.7,8.8,76.6,36.1-1.1-21.7-106.4,32.5-107,22.8,0,38.3,17.4,30.5,28.7-6.3,9.1-11.6,24.7,3.5,24.7,22.4,0-7.7-23.7,16.8-43.2s53.2,13.7,37.3,57.6-5.7,58.7,13.5,54.9c19.3-3.9-19-114.5,32.5-126.7,31.8-8.1,39.1,24.2,42.7,48.1,3.6,23.9-26.3,59.3,4.1,61.7,30.4,2.3,10.7-34,13.6-56.9,2.8-22.9,8.1-65,43.4-66.4,31.8-.7,27.1,24,18.3,50.8-8.8,26.8,14.6,39.4,25.7,29.8s-2-27.8-2-40.7,2.7-21.7,8.8-31.2c6.8-10.8,17.4-22.6,34.6-19.6s32.7,45.1,43.4,19,54.2-26.4,63-19.7c15.6,11.5-4.7,29.8.7,44,4.1,10.2,14.2,11.5,19,2,4.7-9.5-7.4-23-2-32.5,9.5-16.9,42-8.1,48.8,6.8,15.6,32.5-20.2,91.8-1.3,110.4s35.9-3.4,25.7-32.5-14.2-60.3,0-88.8c8.8-16.9,40-38.6,53.5-16.3,13.6,21.7-8.8,66.4-5.4,90.8,3.4,29.8,23.7,22.4,18.3-5.4-2.7-12.9-16.3-67.8,4.1-75.2,25.1-9.5,19,48.8,44,2.7,14.9-27.8,33.2-21,35.2,8.1.7,10.2-4.1,21-2.7,31.2,1.3,12.9,12.2,25.1,22.4,8.8,6.8-10.8-2.4-50.8,19.7-49.5s17.2,19.1,32.5,18.3,11.5-24.4,27.1-25.1c14.9-.7,27.1,15.6,32.5,27.8,8.8,19.7-10.2,56.9,6.1,69.8,28.4,22.4,20.3-37.3,18.3-46.8-4.1-26.4,6.8-48.8,37.3-33.9,27.8,14.2,29.1,52.2,27.8,78.6,0,5.4-4.1,64.4,16.9,35.2,8.1-11.5-.7-52.2.7-65,2-19.7,8.1-37.3,29.1-42,30.5-6.8,52.2,10.2,50.1,39.3-1.4,23.7-20,89.4,13.3,89.4s2.8-44.6,2.8-93.2,15.5-77.2,29.3-77.2V0H0Z"></path></g></g></svg>